REM DIRINDEX 1\2,1\3,1\4,1\5
REM DIRNAME cjc005,folder01,folder02,folder03,folder04
TITLE ""
FILE "P1Q_t_1471-1480.mp3" MP3
  TRACK 01 AUDIO
    TITLE "3:cjc005_5321"
    INDEX 01 00:00:00
  TRACK 02 AUDIO
    TITLE "0:"
    INDEX 01 00:00:72
  TRACK 03 AUDIO
    TITLE "4:cjc005_5322"
    INDEX 01 00:01:26
  TRACK 04 AUDIO
    TITLE "0:"
    INDEX 01 00:02:38
  TRACK 05 AUDIO
    TITLE "5:cjc005_5323"
    INDEX 01 00:02:61
  TRACK 06 AUDIO
    TITLE "0:"
    INDEX 01 00:06:63
  TRACK 07 AUDIO
    TITLE "3:cjc005_5324"
    INDEX 01 00:07:37
  TRACK 08 AUDIO
    TITLE "0:"
    INDEX 01 00:08:46
  TRACK 09 AUDIO
    TITLE "4:cjc005_5325"
    INDEX 01 00:08:70
  TRACK 10 AUDIO
    TITLE "0:"
    INDEX 01 00:10:04
  TRACK 11 AUDIO
    TITLE "5:cjc005_5326"
    INDEX 01 00:10:23
  TRACK 12 AUDIO
    TITLE "0:"
    INDEX 01 00:14:33
  TRACK 13 AUDIO
    TITLE "3:cjc005_5327"
    INDEX 01 00:15:13
  TRACK 14 AUDIO
    TITLE "0:"
    INDEX 01 00:16:22
  TRACK 15 AUDIO
    TITLE "4:cjc005_5328"
    INDEX 01 00:16:46
  TRACK 16 AUDIO
    TITLE "0:"
    INDEX 01 00:18:23
  TRACK 17 AUDIO
    TITLE "5:cjc005_5329"
    INDEX 01 00:18:50
  TRACK 18 AUDIO
    TITLE "0:"
    INDEX 01 00:22:38
  TRACK 19 AUDIO
    TITLE "3:cjc005_5330"
    INDEX 01 00:23:16
  TRACK 20 AUDIO
    TITLE "0:"
    INDEX 01 00:24:33
  TRACK 21 AUDIO
    TITLE "4:cjc005_5331"
    INDEX 01 00:24:63
  TRACK 22 AUDIO
    TITLE "0:"
    INDEX 01 00:26:01
  TRACK 23 AUDIO
    TITLE "5:cjc005_5332"
    INDEX 01 00:26:24
  TRACK 24 AUDIO
    TITLE "0:"
    INDEX 01 00:29:70
  TRACK 25 AUDIO
    TITLE "3:cjc005_5333"
    INDEX 01 00:30:54
  TRACK 26 AUDIO
    TITLE "0:"
    INDEX 01 00:31:61
  TRACK 27 AUDIO
    TITLE "4:cjc005_5334"
    INDEX 01 00:32:13
  TRACK 28 AUDIO
    TITLE "0:"
    INDEX 01 00:33:22
  TRACK 29 AUDIO
    TITLE "5:cjc005_5335"
    INDEX 01 00:33:46
  TRACK 30 AUDIO
    TITLE "0:"
    INDEX 01 00:37:32
  TRACK 31 AUDIO
    TITLE "3:cjc005_5336"
    INDEX 01 00:38:12
  TRACK 32 AUDIO
    TITLE "0:"
    INDEX 01 00:39:25
  TRACK 33 AUDIO
    TITLE "4:cjc005_5337"
    INDEX 01 00:39:54
  TRACK 34 AUDIO
    TITLE "0:"
    INDEX 01 00:40:64
  TRACK 35 AUDIO
    TITLE "5:cjc005_5338"
    INDEX 01 00:41:12
  TRACK 36 AUDIO
    TITLE "0:"
    INDEX 01 00:45:08
  TRACK 37 AUDIO
    TITLE "3:cjc005_5339"
    INDEX 01 00:45:59
  TRACK 38 AUDIO
    TITLE "0:"
    INDEX 01 00:47:01
  TRACK 39 AUDIO
    TITLE "4:cjc005_5340"
    INDEX 01 00:47:28
  TRACK 40 AUDIO
    TITLE "0:"
    INDEX 01 00:48:48
  TRACK 41 AUDIO
    TITLE "5:cjc005_5341"
    INDEX 01 00:48:71
  TRACK 42 AUDIO
    TITLE "0:"
    INDEX 01 00:54:25
  TRACK 43 AUDIO
    TITLE "3:cjc005_5342"
    INDEX 01 00:55:03
  TRACK 44 AUDIO
    TITLE "0:"
    INDEX 01 00:56:24
  TRACK 45 AUDIO
    TITLE "4:cjc005_5343"
    INDEX 01 00:56:51
  TRACK 46 AUDIO
    TITLE "0:"
    INDEX 01 00:57:58
  TRACK 47 AUDIO
    TITLE "5:cjc005_5344"
    INDEX 01 00:58:13
  TRACK 48 AUDIO
    TITLE "0:"
    INDEX 01 01:02:05
  TRACK 49 AUDIO
    TITLE "3:cjc005_5345"
    INDEX 01 01:02:55
  TRACK 50 AUDIO
    TITLE "0:"
    INDEX 01 01:04:09
  TRACK 51 AUDIO
    TITLE "4:cjc005_5346"
    INDEX 01 01:04:37
  TRACK 52 AUDIO
    TITLE "0:"
    INDEX 01 01:05:58
  TRACK 53 AUDIO
    TITLE "5:cjc005_5347"
    INDEX 01 01:06:10
  TRACK 54 AUDIO
    TITLE "0:"
    INDEX 01 01:09:63
  TRACK 55 AUDIO
    TITLE "3:cjc005_5348"
    INDEX 01 01:10:43
  TRACK 56 AUDIO
    TITLE "0:"
    INDEX 01 01:11:60
  TRACK 57 AUDIO
    TITLE "4:cjc005_5349"
    INDEX 01 01:12:07
  TRACK 58 AUDIO
    TITLE "0:"
    INDEX 01 01:13:30
  TRACK 59 AUDIO
    TITLE "5:cjc005_5350"
    INDEX 01 01:13:55
  TRACK 60 AUDIO
    TITLE "0:"
    INDEX 01 01:18:13
